<svg width="139" height="107" viewBox="0 0 139 107" fill="none" xmlns="http://www.w3.org/2000/svg">
<g filter="url(#filter0_d_1005_733)">
<rect x="31" y="11" width="77" height="76" rx="38" fill="#E24E4E" fill-opacity="0.3"/>
<g filter="url(#filter1_d_1005_733)">
<ellipse cx="69.5001" cy="49.0003" rx="34.3" ry="33.8545" fill="url(#paint0_linear_1005_733)"/>
</g>
<path d="M61 46H79M73 51L70 54L67 51M63 40H77C78.1046 40 79 40.8954 79 42V56C79 57.1046 78.1046 58 77 58H63C61.8954 58 61 57.1046 61 56V42C61 40.8954 61.8954 40 63 40Z" stroke="white" stroke-width="2" stroke-linecap="round" stroke-linejoin="round"/>
</g>
<defs>
<filter id="filter0_d_1005_733" x="0.454546" y="0.454546" width="138.091" height="137.091" filterUnits="userSpaceOnUse" color-interpolation-filters="sRGB">
<feFlood flood-opacity="0" result="BackgroundImageFix"/>
<feColorMatrix in="SourceAlpha" type="matrix" values="0 0 0 0 0 0 0 0 0 0 0 0 0 0 0 0 0 0 127 0" result="hardAlpha"/>
<feOffset dy="20"/>
<feGaussianBlur stdDeviation="15.2727"/>
<feColorMatrix type="matrix" values="0 0 0 0 0.541176 0 0 0 0 0.313726 0 0 0 0 0.901961 0 0 0 0.06 0"/>
<feBlend mode="normal" in2="BackgroundImageFix" result="effect1_dropShadow_1005_733"/>
<feBlend mode="normal" in="SourceGraphic" in2="effect1_dropShadow_1005_733" result="shape"/>
</filter>
<filter id="filter1_d_1005_733" x="21.2001" y="15.1458" width="96.6" height="95.7091" filterUnits="userSpaceOnUse" color-interpolation-filters="sRGB">
<feFlood flood-opacity="0" result="BackgroundImageFix"/>
<feColorMatrix in="SourceAlpha" type="matrix" values="0 0 0 0 0 0 0 0 0 0 0 0 0 0 0 0 0 0 127 0" result="hardAlpha"/>
<feMorphology radius="16.5455" operator="erode" in="SourceAlpha" result="effect1_dropShadow_1005_733"/>
<feOffset dy="14"/>
<feGaussianBlur stdDeviation="15.2727"/>
<feColorMatrix type="matrix" values="0 0 0 0 1 0 0 0 0 0.566667 0 0 0 0 0.566667 0 0 0 1 0"/>
<feBlend mode="normal" in2="BackgroundImageFix" result="effect1_dropShadow_1005_733"/>
<feBlend mode="normal" in="SourceGraphic" in2="effect1_dropShadow_1005_733" result="shape"/>
</filter>
<linearGradient id="paint0_linear_1005_733" x1="69.5001" y1="15.1458" x2="69.5001" y2="82.8549" gradientUnits="userSpaceOnUse">
<stop stop-color="#EF3030"/>
<stop offset="1" stop-color="#EF3030" stop-opacity="0"/>
</linearGradient>
</defs>
</svg>
